<svg xmlns="http://www.w3.org/2000/svg" xmlns:xlink="http://www.w3.org/1999/xlink" width="500" zoomAndPan="magnify" viewBox="0 0 375 374.999991" height="500" preserveAspectRatio="xMidYMid meet" version="1.0"><defs><g/><clipPath id="beac0dc953"><path d="M 95.324219 181 L 111 181 L 111 206 L 95.324219 206 Z M 95.324219 181 " clip-rule="nonzero"/></clipPath><clipPath id="7ea15ddbe5"><path d="M 129 181 L 144.824219 181 L 144.824219 206 L 129 206 Z M 129 181 " clip-rule="nonzero"/></clipPath><clipPath id="ffe64526d0"><path d="M 112 176 L 128 176 L 128 210.324219 L 112 210.324219 Z M 112 176 " clip-rule="nonzero"/></clipPath><clipPath id="a5156c01b2"><path d="M 239 177 L 266 177 L 266 224.933594 L 239 224.933594 Z M 239 177 " clip-rule="nonzero"/></clipPath><clipPath id="c9fa969b85"><path d="M 228.167969 169.433594 L 276.917969 169.433594 L 276.917969 197 L 228.167969 197 Z M 228.167969 169.433594 " clip-rule="nonzero"/></clipPath></defs><path fill="#ffffff" d="M 252.515625 125.695312 C 250.105469 125.679688 247.703125 125.792969 245.304688 126.039062 C 242.90625 126.285156 240.53125 126.660156 238.171875 127.164062 C 235.816406 127.671875 233.496094 128.300781 231.207031 129.058594 C 228.917969 129.816406 226.679688 130.695312 224.488281 131.695312 C 222.292969 132.699219 220.164062 133.816406 218.09375 135.046875 C 216.023438 136.28125 214.023438 137.625 212.101562 139.074219 C 210.175781 140.523438 208.335938 142.074219 206.582031 143.726562 C 204.824219 145.378906 203.164062 147.117188 201.597656 148.949219 L 191.738281 160.308594 L 213.746094 185.722656 L 226.722656 170.75 C 228.316406 168.890625 230.089844 167.222656 232.046875 165.75 C 234.003906 164.277344 236.09375 163.03125 238.320312 162.015625 C 240.546875 161 242.859375 160.234375 245.253906 159.722656 C 247.644531 159.210938 250.066406 158.960938 252.515625 158.976562 C 253.609375 158.960938 254.703125 159 255.792969 159.09375 C 256.882812 159.1875 257.964844 159.332031 259.039062 159.535156 C 260.117188 159.734375 261.179688 159.988281 262.230469 160.292969 C 263.277344 160.601562 264.3125 160.957031 265.328125 161.367188 C 266.34375 161.773438 267.335938 162.230469 268.304688 162.738281 C 269.273438 163.246094 270.214844 163.796875 271.128906 164.398438 C 272.046875 164.996094 272.929688 165.640625 273.777344 166.328125 C 274.628906 167.015625 275.445312 167.746094 276.222656 168.511719 C 277.003906 169.28125 277.742188 170.085938 278.441406 170.929688 C 279.140625 171.769531 279.796875 172.644531 280.410156 173.550781 C 281.019531 174.457031 281.585938 175.390625 282.105469 176.355469 C 282.625 177.316406 283.097656 178.300781 283.519531 179.3125 C 283.941406 180.320312 284.3125 181.347656 284.632812 182.394531 C 284.953125 183.441406 285.222656 184.5 285.4375 185.574219 C 285.652344 186.644531 285.8125 187.726562 285.921875 188.816406 C 286.03125 189.902344 286.082031 190.996094 286.082031 192.089844 C 286.082031 193.183594 286.03125 194.273438 285.921875 195.363281 C 285.8125 196.453125 285.652344 197.53125 285.4375 198.605469 C 285.222656 199.679688 284.953125 200.738281 284.632812 201.785156 C 284.3125 202.828125 283.941406 203.855469 283.519531 204.867188 C 283.097656 205.875 282.625 206.863281 282.105469 207.824219 C 281.585938 208.785156 281.019531 209.722656 280.410156 210.628906 C 279.796875 211.535156 279.140625 212.410156 278.441406 213.25 C 277.742188 214.09375 277.003906 214.898438 276.222656 215.664062 C 275.445312 216.433594 274.628906 217.160156 273.777344 217.847656 C 272.929688 218.535156 272.046875 219.179688 271.128906 219.78125 C 270.214844 220.378906 269.273438 220.933594 268.304688 221.441406 C 267.335938 221.945312 266.34375 222.40625 265.328125 222.8125 C 264.3125 223.222656 263.277344 223.578125 262.230469 223.882812 C 261.179688 224.191406 260.117188 224.445312 259.039062 224.644531 C 257.964844 224.84375 256.882812 224.992188 255.792969 225.085938 C 254.703125 225.179688 253.609375 225.21875 252.515625 225.203125 C 250.074219 225.21875 247.664062 224.972656 245.277344 224.460938 C 242.890625 223.949219 240.585938 223.1875 238.367188 222.175781 C 236.144531 221.164062 234.0625 219.921875 232.113281 218.453125 C 230.164062 216.984375 228.394531 215.324219 226.808594 213.472656 C 178.609375 157.816406 201.507812 184.332031 170.898438 148.910156 C 169.328125 147.078125 167.667969 145.339844 165.910156 143.695312 C 164.152344 142.046875 162.3125 140.496094 160.386719 139.050781 C 158.460938 137.601562 156.460938 136.261719 154.390625 135.03125 C 152.320312 133.800781 150.191406 132.6875 147.996094 131.6875 C 145.804688 130.6875 143.566406 129.808594 141.277344 129.054688 C 138.992188 128.296875 136.671875 127.667969 134.316406 127.164062 C 131.960938 126.660156 129.582031 126.285156 127.1875 126.039062 C 124.789062 125.796875 122.386719 125.679688 119.980469 125.695312 C 118.886719 125.6875 117.796875 125.707031 116.707031 125.753906 C 115.617188 125.800781 114.527344 125.875 113.441406 125.972656 C 112.355469 126.074219 111.269531 126.199219 110.191406 126.355469 C 109.109375 126.507812 108.035156 126.6875 106.960938 126.894531 C 105.890625 127.101562 104.824219 127.332031 103.765625 127.59375 C 102.703125 127.851562 101.652344 128.136719 100.605469 128.449219 C 99.558594 128.757812 98.519531 129.09375 97.492188 129.457031 C 96.460938 129.820312 95.441406 130.207031 94.433594 130.621094 C 93.421875 131.03125 92.421875 131.46875 91.433594 131.929688 C 90.445312 132.390625 89.46875 132.878906 88.503906 133.386719 C 87.539062 133.898438 86.585938 134.429688 85.648438 134.988281 C 84.710938 135.546875 83.785156 136.125 82.875 136.726562 C 81.964844 137.328125 81.070312 137.953125 80.191406 138.601562 C 79.3125 139.246094 78.449219 139.914062 77.601562 140.605469 C 76.757812 141.292969 75.929688 142.003906 75.117188 142.734375 C 74.304688 143.460938 73.511719 144.210938 72.738281 144.980469 C 71.964844 145.75 71.210938 146.539062 70.472656 147.34375 C 69.738281 148.148438 69.023438 148.972656 68.328125 149.816406 C 67.632812 150.65625 66.960938 151.515625 66.308594 152.390625 C 65.65625 153.265625 65.023438 154.15625 64.414062 155.0625 C 63.808594 155.96875 63.222656 156.886719 62.65625 157.820312 C 62.09375 158.757812 61.554688 159.703125 61.039062 160.667969 C 60.523438 161.628906 60.027344 162.601562 59.558594 163.585938 C 59.09375 164.570312 58.648438 165.570312 58.230469 166.578125 C 57.808594 167.582031 57.414062 168.601562 57.046875 169.628906 C 56.675781 170.65625 56.332031 171.691406 56.015625 172.734375 C 55.695312 173.777344 55.40625 174.828125 55.136719 175.886719 C 54.871094 176.945312 54.632812 178.011719 54.417969 179.082031 C 54.203125 180.152344 54.015625 181.226562 53.855469 182.304688 C 53.695312 183.382812 53.5625 184.46875 53.453125 185.554688 C 53.347656 186.640625 53.265625 187.726562 53.210938 188.816406 C 53.160156 189.90625 53.132812 190.996094 53.132812 192.089844 C 53.132812 193.179688 53.160156 194.269531 53.210938 195.359375 C 53.265625 196.449219 53.347656 197.539062 53.453125 198.625 C 53.5625 199.710938 53.695312 200.792969 53.855469 201.875 C 54.015625 202.953125 54.203125 204.027344 54.417969 205.097656 C 54.632812 206.167969 54.871094 207.230469 55.136719 208.289062 C 55.40625 209.347656 55.695312 210.398438 56.015625 211.445312 C 56.332031 212.488281 56.675781 213.523438 57.046875 214.550781 C 57.414062 215.578125 57.808594 216.59375 58.230469 217.601562 C 58.648438 218.609375 59.09375 219.605469 59.558594 220.589844 C 60.027344 221.578125 60.523438 222.550781 61.039062 223.511719 C 61.554688 224.472656 62.09375 225.421875 62.65625 226.355469 C 63.222656 227.289062 63.808594 228.210938 64.414062 229.117188 C 65.023438 230.023438 65.65625 230.914062 66.308594 231.789062 C 66.960938 232.664062 67.632812 233.519531 68.328125 234.363281 C 69.023438 235.203125 69.738281 236.027344 70.472656 236.835938 C 71.210938 237.640625 71.964844 238.429688 72.738281 239.195312 C 73.511719 239.964844 74.304688 240.714844 75.117188 241.445312 C 75.929688 242.175781 76.757812 242.886719 77.601562 243.574219 C 78.449219 244.261719 79.3125 244.929688 80.191406 245.578125 C 81.070312 246.222656 81.964844 246.847656 82.875 247.449219 C 83.785156 248.054688 84.710938 248.632812 85.648438 249.191406 C 86.585938 249.746094 87.539062 250.28125 88.503906 250.789062 C 89.46875 251.300781 90.445312 251.785156 91.433594 252.246094 C 92.421875 252.710938 93.421875 253.148438 94.433594 253.558594 C 95.441406 253.972656 96.460938 254.359375 97.492188 254.722656 C 98.519531 255.082031 99.558594 255.417969 100.605469 255.730469 C 101.652344 256.042969 102.703125 256.328125 103.765625 256.585938 C 104.824219 256.84375 105.890625 257.078125 106.960938 257.285156 C 108.035156 257.492188 109.109375 257.671875 110.191406 257.824219 C 111.269531 257.976562 112.355469 258.105469 113.441406 258.203125 C 114.527344 258.304688 115.617188 258.378906 116.707031 258.425781 C 117.796875 258.46875 118.886719 258.488281 119.980469 258.480469 C 122.390625 258.5 124.792969 258.382812 127.191406 258.136719 C 129.585938 257.890625 131.964844 257.515625 134.320312 257.011719 C 136.675781 256.507812 139 255.875 141.289062 255.121094 C 143.574219 254.363281 145.816406 253.484375 148.007812 252.480469 C 150.199219 251.480469 152.332031 250.363281 154.402344 249.128906 C 156.472656 247.898438 158.46875 246.554688 160.394531 245.105469 C 162.320312 243.652344 164.160156 242.101562 165.914062 240.453125 C 167.671875 238.800781 169.332031 237.058594 170.898438 235.226562 L 180.757812 223.871094 L 158.75 198.453125 L 145.769531 213.429688 C 144.179688 215.289062 142.402344 216.957031 140.449219 218.429688 C 138.492188 219.902344 136.402344 221.144531 134.171875 222.160156 C 131.945312 223.179688 129.636719 223.941406 127.242188 224.457031 C 124.847656 224.96875 122.425781 225.21875 119.980469 225.203125 C 118.886719 225.21875 117.792969 225.179688 116.703125 225.085938 C 115.613281 224.992188 114.53125 224.84375 113.453125 224.644531 C 112.378906 224.441406 111.316406 224.191406 110.265625 223.882812 C 109.214844 223.578125 108.183594 223.222656 107.167969 222.8125 C 106.152344 222.40625 105.160156 221.945312 104.191406 221.441406 C 103.222656 220.933594 102.277344 220.378906 101.363281 219.78125 C 100.449219 219.179688 99.566406 218.535156 98.714844 217.847656 C 97.863281 217.160156 97.050781 216.433594 96.269531 215.664062 C 95.492188 214.898438 94.753906 214.089844 94.054688 213.25 C 93.355469 212.410156 92.699219 211.535156 92.085938 210.628906 C 91.472656 209.722656 90.90625 208.785156 90.386719 207.824219 C 89.867188 206.863281 89.398438 205.875 88.976562 204.867188 C 88.554688 203.855469 88.183594 202.828125 87.863281 201.785156 C 87.542969 200.738281 87.273438 199.679688 87.058594 198.605469 C 86.84375 197.53125 86.679688 196.453125 86.574219 195.363281 C 86.464844 194.273438 86.410156 193.183594 86.410156 192.089844 C 86.410156 190.996094 86.464844 189.902344 86.574219 188.816406 C 86.679688 187.726562 86.84375 186.644531 87.058594 185.574219 C 87.273438 184.5 87.542969 183.441406 87.863281 182.394531 C 88.183594 181.347656 88.554688 180.320312 88.976562 179.3125 C 89.398438 178.300781 89.867188 177.316406 90.386719 176.355469 C 90.90625 175.390625 91.472656 174.457031 92.085938 173.550781 C 92.699219 172.644531 93.355469 171.769531 94.054688 170.929688 C 94.753906 170.085938 95.492188 169.28125 96.269531 168.511719 C 97.050781 167.746094 97.863281 167.015625 98.714844 166.328125 C 99.566406 165.640625 100.449219 164.996094 101.363281 164.398438 C 102.277344 163.796875 103.222656 163.246094 104.191406 162.738281 C 105.160156 162.230469 106.152344 161.773438 107.167969 161.367188 C 108.183594 160.957031 109.214844 160.601562 110.265625 160.292969 C 111.316406 159.988281 112.378906 159.734375 113.453125 159.535156 C 114.53125 159.332031 115.613281 159.1875 116.703125 159.09375 C 117.792969 159 118.886719 158.960938 119.980469 158.976562 C 122.417969 158.960938 124.832031 159.207031 127.21875 159.71875 C 129.605469 160.226562 131.910156 160.988281 134.128906 162.003906 C 136.347656 163.015625 138.433594 164.257812 140.382812 165.722656 C 142.332031 167.191406 144.101562 168.851562 145.6875 170.707031 C 193.882812 226.359375 170.984375 199.84375 201.597656 235.269531 C 202.496094 236.339844 203.425781 237.378906 204.386719 238.386719 C 205.351562 239.398438 206.34375 240.378906 207.367188 241.328125 C 208.390625 242.273438 209.445312 243.191406 210.527344 244.070312 C 211.605469 244.953125 212.714844 245.800781 213.851562 246.613281 C 214.984375 247.425781 216.144531 248.203125 217.328125 248.941406 C 218.511719 249.679688 219.714844 250.382812 220.945312 251.046875 C 222.171875 251.710938 223.417969 252.335938 224.683594 252.921875 C 225.953125 253.507812 227.234375 254.050781 228.535156 254.558594 C 229.835938 255.0625 231.152344 255.527344 232.484375 255.949219 C 233.8125 256.371094 235.15625 256.753906 236.507812 257.089844 C 237.863281 257.429688 239.226562 257.722656 240.597656 257.976562 C 241.972656 258.230469 243.351562 258.4375 244.734375 258.605469 C 246.121094 258.769531 247.511719 258.894531 248.90625 258.972656 C 250.296875 259.050781 251.691406 259.085938 253.085938 259.078125 C 254.484375 259.070312 255.878906 259.015625 257.269531 258.921875 C 258.660156 258.824219 260.050781 258.683594 261.433594 258.503906 C 262.816406 258.320312 264.191406 258.09375 265.5625 257.824219 C 266.929688 257.554688 268.289062 257.242188 269.640625 256.886719 C 270.988281 256.53125 272.328125 256.132812 273.652344 255.695312 C 274.976562 255.253906 276.285156 254.777344 277.582031 254.253906 C 278.875 253.734375 280.152344 253.171875 281.410156 252.570312 C 282.671875 251.96875 283.910156 251.328125 285.128906 250.648438 C 286.347656 249.972656 287.546875 249.253906 288.71875 248.5 C 289.894531 247.746094 291.042969 246.957031 292.167969 246.128906 C 293.292969 245.300781 294.390625 244.441406 295.460938 243.546875 C 296.53125 242.652344 297.574219 241.722656 298.585938 240.761719 C 299.597656 239.800781 300.578125 238.808594 301.527344 237.789062 C 302.476562 236.765625 303.394531 235.714844 304.28125 234.636719 C 305.164062 233.554688 306.011719 232.449219 306.828125 231.316406 C 307.640625 230.183594 308.421875 229.023438 309.164062 227.84375 C 309.902344 226.660156 310.609375 225.457031 311.273438 224.230469 C 311.941406 223.003906 312.566406 221.757812 313.15625 220.492188 C 313.746094 219.226562 314.292969 217.945312 314.800781 216.644531 C 315.308594 215.34375 315.773438 214.03125 316.199219 212.699219 C 316.625 211.371094 317.007812 210.03125 317.347656 208.675781 C 317.6875 207.324219 317.988281 205.960938 318.242188 204.589844 C 318.496094 203.214844 318.710938 201.835938 318.878906 200.453125 C 319.046875 199.066406 319.171875 197.679688 319.253906 196.285156 C 319.335938 194.890625 319.371094 193.496094 319.367188 192.101562 C 319.359375 190.707031 319.3125 189.3125 319.21875 187.917969 C 319.125 186.527344 318.988281 185.140625 318.804688 183.753906 C 318.625 182.371094 318.402344 180.996094 318.132812 179.625 C 317.867188 178.253906 317.558594 176.894531 317.207031 175.542969 C 316.851562 174.195312 316.457031 172.855469 316.023438 171.53125 C 315.585938 170.207031 315.109375 168.894531 314.589844 167.597656 C 314.070312 166.304688 313.511719 165.027344 312.914062 163.765625 C 312.3125 162.503906 311.675781 161.265625 311 160.042969 C 310.324219 158.824219 309.609375 157.625 308.855469 156.449219 C 308.105469 155.273438 307.316406 154.121094 306.492188 152.996094 C 305.667969 151.871094 304.808594 150.773438 303.914062 149.699219 C 303.023438 148.628906 302.097656 147.582031 301.136719 146.570312 C 300.179688 145.554688 299.1875 144.574219 298.167969 143.621094 C 297.148438 142.667969 296.097656 141.75 295.019531 140.863281 C 293.941406 139.976562 292.835938 139.125 291.707031 138.308594 C 290.574219 137.492188 289.417969 136.710938 288.238281 135.96875 C 287.058594 135.222656 285.855469 134.515625 284.628906 133.847656 C 283.402344 133.179688 282.160156 132.550781 280.894531 131.960938 C 279.628906 131.371094 278.347656 130.820312 277.050781 130.308594 C 275.75 129.800781 274.4375 129.332031 273.109375 128.902344 C 271.78125 128.476562 270.4375 128.089844 269.085938 127.746094 C 267.734375 127.402344 266.371094 127.101562 265 126.84375 C 263.628906 126.585938 262.25 126.371094 260.867188 126.199219 C 259.480469 126.027344 258.089844 125.902344 256.699219 125.816406 C 255.304688 125.734375 253.910156 125.691406 252.515625 125.695312 Z M 252.515625 125.695312 " fill-opacity="1" fill-rule="nonzero"/><g clip-path="url(#beac0dc953)"><path fill="#ffffff" d="M 107.820312 205.464844 C 107.089844 205.464844 106.605469 205.21875 106.117188 204.734375 L 96.402344 195.015625 C 95.429688 194.042969 95.429688 192.585938 96.402344 191.613281 L 106.117188 181.898438 C 107.089844 180.925781 108.546875 180.925781 109.519531 181.898438 C 110.492188 182.867188 110.492188 184.328125 109.519531 185.296875 L 101.503906 193.316406 L 109.519531 201.332031 C 110.492188 202.304688 110.492188 203.761719 109.519531 204.734375 C 109.035156 205.21875 108.546875 205.464844 107.820312 205.464844 Z M 107.820312 205.464844 " fill-opacity="1" fill-rule="nonzero"/></g><g clip-path="url(#7ea15ddbe5)"><path fill="#ffffff" d="M 132.117188 205.464844 C 131.386719 205.464844 130.902344 205.21875 130.414062 204.734375 C 129.441406 203.761719 129.441406 202.304688 130.414062 201.332031 L 138.433594 193.316406 L 130.414062 185.296875 C 129.441406 184.328125 129.441406 182.867188 130.414062 181.898438 C 131.386719 180.925781 132.84375 180.925781 133.816406 181.898438 L 143.535156 191.613281 C 144.507812 192.585938 144.507812 194.042969 143.535156 195.015625 L 133.816406 204.734375 C 133.332031 205.21875 132.84375 205.464844 132.117188 205.464844 Z M 132.117188 205.464844 " fill-opacity="1" fill-rule="nonzero"/></g><g clip-path="url(#ffe64526d0)"><path fill="#ffffff" d="M 115.109375 210.324219 C 114.867188 210.324219 114.621094 210.324219 114.378906 210.078125 C 113.164062 209.59375 112.4375 208.378906 112.921875 206.921875 L 122.640625 177.765625 C 123.125 176.550781 124.339844 175.824219 125.796875 176.308594 C 127.011719 176.792969 127.742188 178.007812 127.257812 179.46875 L 117.539062 208.621094 C 117.050781 209.59375 116.082031 210.324219 115.109375 210.324219 Z M 115.109375 210.324219 " fill-opacity="1" fill-rule="nonzero"/></g><g clip-path="url(#a5156c01b2)"><path fill="#ffffff" d="M 251.144531 198.261719 C 251.34375 198.203125 251.441406 198.070312 251.441406 197.867188 L 251.441406 178.363281 C 251.441406 178.234375 251.394531 178.121094 251.304688 178.03125 C 251.210938 177.9375 251.097656 177.890625 250.96875 177.890625 L 250.449219 177.890625 C 250.167969 177.890625 249.972656 178.023438 249.867188 178.28125 L 239.691406 202.980469 C 239.46875 203.519531 239.453125 204.0625 239.648438 204.613281 L 242.511719 212.664062 L 241.632812 212.664062 C 241.394531 212.664062 241.191406 212.746094 241.023438 212.914062 C 240.855469 213.082031 240.773438 213.285156 240.773438 213.523438 L 240.773438 217.023438 C 240.773438 217.261719 240.855469 217.464844 241.023438 217.632812 C 241.191406 217.800781 241.394531 217.882812 241.632812 217.886719 L 242.253906 217.886719 L 242.253906 224.347656 C 242.253906 224.585938 242.339844 224.792969 242.511719 224.960938 C 242.679688 225.132812 242.882812 225.214844 243.125 225.214844 L 261.953125 225.214844 C 262.191406 225.214844 262.394531 225.132812 262.566406 224.960938 C 262.734375 224.792969 262.820312 224.585938 262.820312 224.347656 L 262.820312 219.464844 C 262.820312 219.351562 262.78125 219.257812 262.703125 219.179688 C 262.625 219.101562 262.53125 219.0625 262.417969 219.0625 C 262.308594 219.0625 262.214844 219.101562 262.136719 219.179688 C 262.058594 219.257812 262.019531 219.351562 262.019531 219.464844 L 262.019531 224.347656 C 262.019531 224.394531 261.996094 224.414062 261.953125 224.417969 L 243.125 224.417969 C 243.078125 224.414062 243.054688 224.394531 243.054688 224.347656 L 243.054688 217.886719 L 263.441406 217.886719 C 263.679688 217.882812 263.882812 217.800781 264.050781 217.632812 C 264.21875 217.464844 264.304688 217.261719 264.304688 217.023438 L 264.304688 213.523438 C 264.304688 213.285156 264.21875 213.082031 264.050781 212.914062 C 263.882812 212.746094 263.679688 212.664062 263.441406 212.664062 L 262.5625 212.664062 L 265.425781 204.613281 C 265.621094 204.0625 265.609375 203.519531 265.386719 202.980469 L 255.207031 178.28125 C 255.101562 178.023438 254.90625 177.890625 254.625 177.890625 L 254.105469 177.890625 C 253.976562 177.890625 253.863281 177.9375 253.773438 178.03125 C 253.679688 178.121094 253.632812 178.234375 253.632812 178.363281 L 253.632812 197.867188 C 253.632812 198.074219 253.734375 198.203125 253.929688 198.261719 C 254.457031 198.417969 254.945312 198.65625 255.390625 198.976562 C 255.839844 199.300781 256.21875 199.683594 256.535156 200.136719 C 256.855469 200.585938 257.085938 201.074219 257.238281 201.605469 C 257.390625 202.132812 257.449219 202.671875 257.417969 203.222656 C 257.289062 205.625 255.132812 207.742188 252.730469 207.832031 C 252.132812 207.855469 251.554688 207.773438 250.988281 207.585938 C 250.421875 207.394531 249.910156 207.113281 249.449219 206.738281 C 248.988281 206.359375 248.605469 205.914062 248.308594 205.398438 C 248.007812 204.882812 247.8125 204.332031 247.714844 203.746094 C 247.617188 203.15625 247.625 202.570312 247.742188 201.988281 C 247.859375 201.402344 248.078125 200.859375 248.394531 200.355469 C 248.707031 199.847656 249.105469 199.414062 249.578125 199.054688 C 250.050781 198.695312 250.574219 198.429688 251.144531 198.261719 Z M 263.503906 213.523438 L 263.503906 217.023438 C 263.503906 217.0625 263.484375 217.085938 263.441406 217.085938 L 241.632812 217.085938 C 241.59375 217.085938 241.570312 217.0625 241.570312 217.023438 L 241.570312 213.523438 C 241.570312 213.484375 241.59375 213.464844 241.632812 213.464844 L 263.441406 213.464844 C 263.484375 213.464844 263.503906 213.484375 263.503906 213.523438 Z M 263.503906 213.523438 " fill-opacity="1" fill-rule="nonzero"/></g><path fill="#ffffff" d="M 245.164062 173.476562 C 244.296875 173.835938 243.457031 174.253906 242.652344 174.730469 C 241.84375 175.210938 241.074219 175.746094 240.34375 176.335938 C 239.613281 176.925781 238.929688 177.566406 238.292969 178.257812 C 237.65625 178.945312 237.074219 179.679688 236.542969 180.453125 C 236.011719 181.226562 235.542969 182.035156 235.128906 182.878906 C 234.714844 183.722656 234.363281 184.589844 234.078125 185.484375 C 233.792969 186.378906 233.570312 187.289062 233.414062 188.214844 C 233.261719 189.140625 233.175781 190.074219 233.15625 191.011719 L 231.527344 191.011719 C 231.289062 191.011719 231.085938 191.097656 230.917969 191.265625 C 230.746094 191.433594 230.664062 191.640625 230.664062 191.878906 L 230.664062 195.921875 C 230.664062 196.160156 230.746094 196.367188 230.917969 196.535156 C 231.085938 196.703125 231.289062 196.789062 231.527344 196.789062 L 235.574219 196.789062 C 235.8125 196.789062 236.015625 196.703125 236.183594 196.535156 C 236.351562 196.367188 236.4375 196.160156 236.4375 195.921875 L 236.4375 191.878906 C 236.4375 191.640625 236.351562 191.433594 236.183594 191.265625 C 236.015625 191.097656 235.8125 191.011719 235.574219 191.011719 L 233.957031 191.011719 C 233.972656 190.113281 234.058594 189.21875 234.207031 188.332031 C 234.355469 187.445312 234.570312 186.574219 234.84375 185.71875 C 235.121094 184.863281 235.457031 184.03125 235.851562 183.222656 C 236.246094 182.414062 236.699219 181.640625 237.207031 180.898438 C 237.71875 180.15625 238.277344 179.453125 238.886719 178.792969 C 239.496094 178.132812 240.152344 177.519531 240.851562 176.953125 C 241.550781 176.390625 242.289062 175.878906 243.0625 175.417969 C 243.835938 174.960938 244.636719 174.558594 245.46875 174.21875 C 245.570312 174.175781 245.644531 174.101562 245.6875 174 C 245.730469 173.898438 245.730469 173.796875 245.6875 173.695312 C 245.644531 173.59375 245.574219 173.519531 245.472656 173.476562 C 245.371094 173.433594 245.265625 173.433594 245.164062 173.476562 Z M 235.574219 191.8125 C 235.617188 191.8125 235.636719 191.835938 235.636719 191.878906 L 235.636719 195.921875 C 235.636719 195.964844 235.617188 195.988281 235.574219 195.988281 L 231.527344 195.988281 C 231.484375 195.988281 231.464844 195.964844 231.464844 195.921875 L 231.464844 191.878906 C 231.464844 191.835938 231.484375 191.8125 231.527344 191.8125 Z M 235.574219 191.8125 " fill-opacity="1" fill-rule="nonzero"/><g clip-path="url(#c9fa969b85)"><path fill="#ffffff" d="M 274.011719 169.539062 C 273.664062 169.539062 273.328125 169.601562 273 169.722656 C 272.675781 169.84375 272.378906 170.019531 272.117188 170.25 C 271.855469 170.476562 271.640625 170.742188 271.476562 171.050781 C 271.308594 171.355469 271.203125 171.679688 271.152344 172.027344 L 255.425781 172.027344 L 255.425781 170.402344 C 255.425781 170.164062 255.339844 169.960938 255.171875 169.792969 C 255.003906 169.621094 254.796875 169.539062 254.558594 169.539062 L 250.515625 169.539062 C 250.277344 169.539062 250.074219 169.621094 249.902344 169.792969 C 249.734375 169.960938 249.648438 170.164062 249.648438 170.402344 L 249.648438 172.027344 L 233.921875 172.027344 C 233.890625 171.785156 233.824219 171.554688 233.734375 171.328125 C 233.640625 171.105469 233.523438 170.898438 233.378906 170.703125 C 233.234375 170.507812 233.070312 170.335938 232.878906 170.183594 C 232.691406 170.03125 232.488281 169.902344 232.269531 169.800781 C 232.046875 169.699219 231.820312 169.628906 231.582031 169.585938 C 231.34375 169.542969 231.101562 169.527344 230.863281 169.546875 C 230.621094 169.5625 230.382812 169.609375 230.15625 169.683594 C 229.925781 169.761719 229.707031 169.863281 229.503906 169.996094 C 229.300781 170.125 229.117188 170.277344 228.949219 170.457031 C 228.785156 170.632812 228.644531 170.828125 228.527344 171.039062 C 228.414062 171.253906 228.324219 171.476562 228.265625 171.710938 C 228.203125 171.945312 228.175781 172.183594 228.175781 172.425781 C 228.175781 172.667969 228.203125 172.90625 228.265625 173.140625 C 228.324219 173.375 228.414062 173.597656 228.527344 173.8125 C 228.644531 174.023438 228.785156 174.21875 228.949219 174.394531 C 229.117188 174.574219 229.300781 174.726562 229.503906 174.855469 C 229.707031 174.988281 229.925781 175.089844 230.15625 175.167969 C 230.382812 175.242188 230.621094 175.289062 230.863281 175.308594 C 231.101562 175.324219 231.34375 175.308594 231.582031 175.265625 C 231.820312 175.222656 232.046875 175.152344 232.269531 175.050781 C 232.488281 174.949219 232.691406 174.820312 232.878906 174.667969 C 233.070312 174.515625 233.234375 174.34375 233.378906 174.148438 C 233.523438 173.953125 233.640625 173.746094 233.734375 173.523438 C 233.824219 173.296875 233.890625 173.066406 233.921875 172.824219 L 249.648438 172.824219 L 249.648438 174.449219 C 249.648438 174.6875 249.734375 174.890625 249.902344 175.058594 C 250.074219 175.230469 250.277344 175.3125 250.515625 175.3125 L 254.558594 175.3125 C 254.796875 175.3125 255.003906 175.230469 255.171875 175.058594 C 255.339844 174.890625 255.425781 174.6875 255.425781 174.449219 L 255.425781 173.050781 C 264.277344 174.429688 270.925781 182.039062 271.121094 191.011719 L 269.503906 191.011719 C 269.261719 191.011719 269.058594 191.097656 268.890625 191.265625 C 268.722656 191.433594 268.636719 191.640625 268.636719 191.878906 L 268.636719 195.921875 C 268.636719 196.160156 268.722656 196.367188 268.890625 196.535156 C 269.058594 196.703125 269.261719 196.789062 269.503906 196.789062 L 273.546875 196.789062 C 273.785156 196.789062 273.988281 196.703125 274.160156 196.535156 C 274.328125 196.367188 274.410156 196.160156 274.414062 195.921875 L 274.414062 191.878906 C 274.410156 191.640625 274.328125 191.433594 274.160156 191.265625 C 273.988281 191.097656 273.785156 191.011719 273.546875 191.011719 L 271.921875 191.011719 C 271.898438 189.992188 271.796875 188.980469 271.617188 187.976562 C 271.433594 186.96875 271.175781 185.984375 270.839844 185.023438 C 270.503906 184.058594 270.09375 183.125 269.609375 182.226562 C 269.125 181.328125 268.574219 180.472656 267.957031 179.660156 C 267.339844 178.847656 266.660156 178.089844 265.921875 177.386719 C 265.183594 176.679688 264.394531 176.039062 263.554688 175.457031 C 262.714844 174.878906 261.832031 174.367188 260.914062 173.925781 C 259.992188 173.484375 259.042969 173.117188 258.066406 172.824219 L 271.152344 172.824219 C 271.203125 173.195312 271.320312 173.539062 271.507812 173.859375 C 271.691406 174.183594 271.929688 174.460938 272.21875 174.691406 C 272.511719 174.921875 272.835938 175.089844 273.191406 175.195312 C 273.546875 175.300781 273.910156 175.335938 274.28125 175.300781 C 274.648438 175.265625 275 175.164062 275.332031 174.996094 C 275.660156 174.824219 275.949219 174.601562 276.191406 174.320312 C 276.433594 174.039062 276.617188 173.726562 276.738281 173.375 C 276.863281 173.023438 276.914062 172.664062 276.898438 172.292969 C 276.878906 171.921875 276.792969 171.566406 276.640625 171.226562 C 276.484375 170.890625 276.273438 170.59375 276.007812 170.335938 C 275.738281 170.082031 275.429688 169.882812 275.085938 169.746094 C 274.742188 169.605469 274.382812 169.539062 274.011719 169.539062 Z M 231.0625 174.511719 C 231.058594 174.511719 231.054688 174.511719 231.050781 174.511719 C 231.492188 174.070312 231.78125 173.300781 231.78125 172.425781 C 231.78125 171.550781 231.492188 170.78125 231.050781 170.339844 C 231.054688 170.339844 231.058594 170.339844 231.0625 170.339844 C 231.339844 170.339844 231.605469 170.390625 231.863281 170.496094 C 232.117188 170.601562 232.34375 170.753906 232.539062 170.949219 C 232.734375 171.144531 232.886719 171.371094 232.992188 171.628906 C 233.097656 171.882812 233.152344 172.148438 233.152344 172.425781 C 233.152344 172.703125 233.097656 172.96875 232.992188 173.226562 C 232.886719 173.480469 232.734375 173.707031 232.539062 173.902344 C 232.34375 174.097656 232.117188 174.25 231.863281 174.355469 C 231.605469 174.460938 231.339844 174.511719 231.0625 174.511719 Z M 254.625 174.449219 C 254.625 174.492188 254.601562 174.511719 254.558594 174.511719 L 250.515625 174.511719 C 250.472656 174.511719 250.449219 174.492188 250.449219 174.449219 L 250.449219 170.402344 C 250.449219 170.359375 250.472656 170.339844 250.515625 170.339844 L 254.558594 170.339844 C 254.601562 170.339844 254.625 170.359375 254.625 170.402344 Z M 273.546875 191.8125 C 273.589844 191.8125 273.613281 191.835938 273.613281 191.878906 L 273.613281 195.921875 C 273.613281 195.964844 273.589844 195.988281 273.546875 195.988281 L 269.503906 195.988281 C 269.457031 195.988281 269.4375 195.964844 269.4375 195.921875 L 269.4375 191.878906 C 269.4375 191.835938 269.457031 191.8125 269.503906 191.8125 Z M 274.011719 174.511719 C 274.007812 174.511719 274.003906 174.511719 274 174.511719 C 274.441406 174.070312 274.730469 173.300781 274.730469 172.425781 C 274.730469 171.550781 274.441406 170.78125 274 170.339844 C 274.003906 170.339844 274.007812 170.339844 274.011719 170.339844 C 274.289062 170.339844 274.554688 170.390625 274.8125 170.496094 C 275.066406 170.601562 275.292969 170.753906 275.488281 170.949219 C 275.683594 171.144531 275.835938 171.371094 275.941406 171.628906 C 276.046875 171.882812 276.097656 172.148438 276.097656 172.425781 C 276.097656 172.703125 276.046875 172.96875 275.941406 173.226562 C 275.835938 173.480469 275.683594 173.707031 275.488281 173.902344 C 275.292969 174.097656 275.066406 174.25 274.8125 174.355469 C 274.554688 174.460938 274.289062 174.511719 274.011719 174.511719 Z M 274.011719 174.511719 " fill-opacity="1" fill-rule="nonzero"/></g><g fill="#ffffff" fill-opacity="1"><g transform="translate(75.88976, 288.853428)"><g><path d="M 1.78125 -7.984375 L 10.8125 -12.5 L 10.8125 -10.609375 L 4.3125 -7.4375 C 4.132812 -7.351562 3.976562 -7.28125 3.84375 -7.21875 C 3.707031 -7.164062 3.585938 -7.125 3.484375 -7.09375 C 3.359375 -7.050781 3.25 -7.023438 3.15625 -7.015625 L 3.15625 -6.859375 C 3.25 -6.847656 3.359375 -6.828125 3.484375 -6.796875 C 3.585938 -6.773438 3.707031 -6.734375 3.84375 -6.671875 C 3.976562 -6.617188 4.132812 -6.550781 4.3125 -6.46875 L 10.8125 -3.234375 L 10.8125 -1.359375 L 1.78125 -5.875 Z M 1.78125 -7.984375 "/></g></g></g><g fill="#ffffff" fill-opacity="1"><g transform="translate(88.482735, 288.853428)"><g><path d="M 6.421875 -15.328125 C 7.742188 -15.328125 8.804688 -14.96875 9.609375 -14.25 C 10.410156 -13.53125 10.890625 -12.523438 11.046875 -11.234375 L 9.15625 -11.234375 C 9.070312 -11.992188 8.785156 -12.585938 8.296875 -13.015625 C 7.816406 -13.441406 7.191406 -13.65625 6.421875 -13.65625 C 5.585938 -13.65625 4.925781 -13.398438 4.4375 -12.890625 C 3.945312 -12.390625 3.703125 -11.695312 3.703125 -10.8125 L 3.703125 -4.3125 C 3.703125 -3.425781 3.941406 -2.726562 4.421875 -2.21875 C 4.898438 -1.71875 5.566406 -1.46875 6.421875 -1.46875 C 7.191406 -1.46875 7.816406 -1.679688 8.296875 -2.109375 C 8.785156 -2.535156 9.070312 -3.128906 9.15625 -3.890625 L 11.046875 -3.890625 C 10.890625 -2.597656 10.410156 -1.59375 9.609375 -0.875 C 8.804688 -0.15625 7.742188 0.203125 6.421875 0.203125 C 5.710938 0.203125 5.070312 0.0976562 4.5 -0.109375 C 3.9375 -0.316406 3.453125 -0.613281 3.046875 -1 C 2.648438 -1.394531 2.34375 -1.875 2.125 -2.4375 C 1.914062 -3 1.8125 -3.625 1.8125 -4.3125 L 1.8125 -10.8125 C 1.8125 -11.5 1.914062 -12.125 2.125 -12.6875 C 2.34375 -13.25 2.648438 -13.722656 3.046875 -14.109375 C 3.453125 -14.503906 3.9375 -14.804688 4.5 -15.015625 C 5.070312 -15.222656 5.710938 -15.328125 6.421875 -15.328125 Z M 6.421875 -15.328125 "/></g></g></g><g fill="#ffffff" fill-opacity="1"><g transform="translate(101.075709, 288.853428)"><g><path d="M 3.5625 -4.3125 C 3.5625 -3.4375 3.804688 -2.742188 4.296875 -2.234375 C 4.796875 -1.722656 5.460938 -1.46875 6.296875 -1.46875 C 7.140625 -1.46875 7.804688 -1.722656 8.296875 -2.234375 C 8.785156 -2.742188 9.03125 -3.4375 9.03125 -4.3125 L 9.03125 -10.8125 C 9.03125 -11.675781 8.785156 -12.363281 8.296875 -12.875 C 7.804688 -13.394531 7.140625 -13.65625 6.296875 -13.65625 C 5.460938 -13.65625 4.796875 -13.394531 4.296875 -12.875 C 3.804688 -12.363281 3.5625 -11.675781 3.5625 -10.8125 Z M 1.6875 -10.8125 C 1.6875 -11.5 1.789062 -12.125 2 -12.6875 C 2.21875 -13.25 2.523438 -13.722656 2.921875 -14.109375 C 3.328125 -14.503906 3.8125 -14.804688 4.375 -15.015625 C 4.945312 -15.222656 5.585938 -15.328125 6.296875 -15.328125 C 7.015625 -15.328125 7.65625 -15.222656 8.21875 -15.015625 C 8.789062 -14.804688 9.273438 -14.503906 9.671875 -14.109375 C 10.066406 -13.722656 10.375 -13.25 10.59375 -12.6875 C 10.8125 -12.125 10.921875 -11.5 10.921875 -10.8125 L 10.921875 -4.3125 C 10.921875 -3.625 10.8125 -3 10.59375 -2.4375 C 10.375 -1.882812 10.066406 -1.410156 9.671875 -1.015625 C 9.273438 -0.628906 8.785156 -0.328125 8.203125 -0.109375 C 7.628906 0.0976562 6.992188 0.203125 6.296875 0.203125 C 5.585938 0.203125 4.945312 0.0976562 4.375 -0.109375 C 3.8125 -0.316406 3.328125 -0.613281 2.921875 -1 C 2.523438 -1.394531 2.21875 -1.875 2 -2.4375 C 1.789062 -3 1.6875 -3.625 1.6875 -4.3125 Z M 1.6875 -10.8125 "/></g></g></g><g fill="#ffffff" fill-opacity="1"><g transform="translate(113.668684, 288.853428)"><g><path d="M 6.0625 -1.6875 C 6.945312 -1.6875 7.660156 -1.953125 8.203125 -2.484375 C 8.742188 -3.023438 9.015625 -3.738281 9.015625 -4.625 L 9.015625 -10.515625 C 9.015625 -11.398438 8.742188 -12.109375 8.203125 -12.640625 C 7.660156 -13.171875 6.945312 -13.4375 6.0625 -13.4375 L 3.734375 -13.4375 L 3.734375 -1.6875 Z M 1.84375 0 L 1.84375 -15.125 L 6.0625 -15.125 C 6.789062 -15.125 7.453125 -15.007812 8.046875 -14.78125 C 8.648438 -14.5625 9.164062 -14.25 9.59375 -13.84375 C 10.019531 -13.445312 10.347656 -12.960938 10.578125 -12.390625 C 10.804688 -11.828125 10.921875 -11.203125 10.921875 -10.515625 L 10.921875 -4.625 C 10.921875 -3.9375 10.804688 -3.304688 10.578125 -2.734375 C 10.347656 -2.160156 10.019531 -1.671875 9.59375 -1.265625 C 9.164062 -0.867188 8.648438 -0.554688 8.046875 -0.328125 C 7.453125 -0.109375 6.789062 0 6.0625 0 Z M 1.84375 0 "/></g></g></g><g fill="#ffffff" fill-opacity="1"><g transform="translate(126.261659, 288.853428)"><g><path d="M 2 0 L 2 -15.125 L 10.921875 -15.125 L 10.921875 -13.390625 L 3.890625 -13.390625 L 3.890625 -8.65625 L 10.1875 -8.65625 L 10.1875 -6.9375 L 3.890625 -6.9375 L 3.890625 -1.71875 L 10.921875 -1.71875 L 10.921875 0 Z M 2 0 "/></g></g></g><g fill="#ffffff" fill-opacity="1"><g transform="translate(138.854633, 288.853428)"><g><path d="M 6.71875 -15.125 C 7.40625 -15.125 8.023438 -15.015625 8.578125 -14.796875 C 9.140625 -14.585938 9.617188 -14.285156 10.015625 -13.890625 C 10.421875 -13.503906 10.734375 -13.039062 10.953125 -12.5 C 11.171875 -11.96875 11.28125 -11.367188 11.28125 -10.703125 C 11.28125 -9.660156 11.007812 -8.769531 10.46875 -8.03125 C 9.925781 -7.300781 9.195312 -6.796875 8.28125 -6.515625 L 11.484375 0 L 9.265625 0 L 6.328125 -6.296875 L 3.78125 -6.296875 L 3.78125 0 L 1.890625 0 L 1.890625 -15.125 Z M 3.78125 -7.984375 L 6.71875 -7.984375 C 7.519531 -7.984375 8.15625 -8.226562 8.625 -8.71875 C 9.09375 -9.21875 9.328125 -9.878906 9.328125 -10.703125 C 9.328125 -11.535156 9.085938 -12.195312 8.609375 -12.6875 C 8.128906 -13.1875 7.5 -13.4375 6.71875 -13.4375 L 3.78125 -13.4375 Z M 3.78125 -7.984375 "/></g></g></g><g fill="#ffffff" fill-opacity="1"><g transform="translate(151.447608, 288.853428)"><g><path d="M 1.78125 -3.25 L 8.296875 -6.421875 C 8.460938 -6.503906 8.613281 -6.570312 8.75 -6.625 C 8.894531 -6.6875 9.023438 -6.734375 9.140625 -6.765625 C 9.242188 -6.804688 9.347656 -6.832031 9.453125 -6.84375 L 9.453125 -7 C 9.347656 -7.007812 9.242188 -7.035156 9.140625 -7.078125 C 8.898438 -7.117188 8.617188 -7.222656 8.296875 -7.390625 L 1.78125 -10.625 L 1.78125 -12.5 L 10.8125 -7.984375 L 10.8125 -5.875 L 1.78125 -1.359375 Z M 1.78125 -3.25 "/></g></g></g><g fill="#ffffff" fill-opacity="1"><g transform="translate(202.195539, 288.853428)"><g><path d="M 6.0625 -1.6875 C 6.945312 -1.6875 7.660156 -1.953125 8.203125 -2.484375 C 8.742188 -3.023438 9.015625 -3.738281 9.015625 -4.625 L 9.015625 -10.515625 C 9.015625 -11.398438 8.742188 -12.109375 8.203125 -12.640625 C 7.660156 -13.171875 6.945312 -13.4375 6.0625 -13.4375 L 3.734375 -13.4375 L 3.734375 -1.6875 Z M 1.84375 0 L 1.84375 -15.125 L 6.0625 -15.125 C 6.789062 -15.125 7.453125 -15.007812 8.046875 -14.78125 C 8.648438 -14.5625 9.164062 -14.25 9.59375 -13.84375 C 10.019531 -13.445312 10.347656 -12.960938 10.578125 -12.390625 C 10.804688 -11.828125 10.921875 -11.203125 10.921875 -10.515625 L 10.921875 -4.625 C 10.921875 -3.9375 10.804688 -3.304688 10.578125 -2.734375 C 10.347656 -2.160156 10.019531 -1.671875 9.59375 -1.265625 C 9.164062 -0.867188 8.648438 -0.554688 8.046875 -0.328125 C 7.453125 -0.109375 6.789062 0 6.0625 0 Z M 1.84375 0 "/></g></g></g><g fill="#ffffff" fill-opacity="1"><g transform="translate(214.788514, 288.853428)"><g><path d="M 2 0 L 2 -15.125 L 10.921875 -15.125 L 10.921875 -13.390625 L 3.890625 -13.390625 L 3.890625 -8.65625 L 10.1875 -8.65625 L 10.1875 -6.9375 L 3.890625 -6.9375 L 3.890625 -1.71875 L 10.921875 -1.71875 L 10.921875 0 Z M 2 0 "/></g></g></g><g fill="#ffffff" fill-opacity="1"><g transform="translate(227.381489, 288.853428)"><g><path d="M 6.296875 0.203125 C 5.609375 0.203125 4.96875 0.109375 4.375 -0.078125 C 3.789062 -0.265625 3.285156 -0.535156 2.859375 -0.890625 C 2.429688 -1.242188 2.09375 -1.671875 1.84375 -2.171875 C 1.601562 -2.679688 1.476562 -3.253906 1.46875 -3.890625 L 3.46875 -3.890625 C 3.46875 -3.523438 3.539062 -3.191406 3.6875 -2.890625 C 3.832031 -2.597656 4.035156 -2.347656 4.296875 -2.140625 C 4.566406 -1.929688 4.875 -1.765625 5.21875 -1.640625 C 5.570312 -1.523438 5.945312 -1.46875 6.34375 -1.46875 C 7.226562 -1.46875 7.925781 -1.671875 8.4375 -2.078125 C 8.957031 -2.492188 9.21875 -3.0625 9.21875 -3.78125 C 9.21875 -4.382812 9.023438 -4.921875 8.640625 -5.390625 C 8.265625 -5.859375 7.722656 -6.222656 7.015625 -6.484375 L 5.421875 -7.078125 C 3.078125 -7.929688 1.90625 -9.34375 1.90625 -11.3125 C 1.90625 -12.570312 2.304688 -13.554688 3.109375 -14.265625 C 3.910156 -14.972656 5.007812 -15.328125 6.40625 -15.328125 C 7.0625 -15.328125 7.660156 -15.234375 8.203125 -15.046875 C 8.753906 -14.867188 9.226562 -14.601562 9.625 -14.25 C 10.03125 -13.90625 10.347656 -13.484375 10.578125 -12.984375 C 10.804688 -12.492188 10.925781 -11.9375 10.9375 -11.3125 L 8.953125 -11.3125 C 8.953125 -11.664062 8.878906 -11.984375 8.734375 -12.265625 C 8.597656 -12.554688 8.410156 -12.800781 8.171875 -13 C 7.941406 -13.207031 7.671875 -13.367188 7.359375 -13.484375 C 7.054688 -13.597656 6.734375 -13.65625 6.390625 -13.65625 C 5.585938 -13.65625 4.957031 -13.460938 4.5 -13.078125 C 4.050781 -12.703125 3.828125 -12.191406 3.828125 -11.546875 C 3.828125 -10.921875 3.992188 -10.398438 4.328125 -9.984375 C 4.671875 -9.566406 5.226562 -9.222656 6 -8.953125 L 7.6875 -8.34375 C 8.800781 -7.9375 9.648438 -7.347656 10.234375 -6.578125 C 10.828125 -5.804688 11.125 -4.894531 11.125 -3.84375 C 11.125 -2.582031 10.691406 -1.59375 9.828125 -0.875 C 8.972656 -0.15625 7.796875 0.203125 6.296875 0.203125 Z M 6.296875 0.203125 "/></g></g></g><g fill="#ffffff" fill-opacity="1"><g transform="translate(239.974463, 288.853428)"><g><path d="M 5.328125 -1.65625 L 5.328125 -13.46875 L 2 -13.46875 L 2 -15.125 L 10.609375 -15.125 L 10.609375 -13.46875 L 7.265625 -13.46875 L 7.265625 -1.65625 L 10.609375 -1.65625 L 10.609375 0 L 2 0 L 2 -1.65625 Z M 5.328125 -1.65625 "/></g></g></g><g fill="#ffffff" fill-opacity="1"><g transform="translate(252.567438, 288.853428)"><g><path d="M 5.96875 -7.765625 L 10.921875 -7.765625 L 10.921875 -4.3125 C 10.921875 -3.625 10.8125 -3 10.59375 -2.4375 C 10.375 -1.875 10.066406 -1.394531 9.671875 -1 C 9.273438 -0.613281 8.789062 -0.316406 8.21875 -0.109375 C 7.65625 0.0976562 7.015625 0.203125 6.296875 0.203125 C 5.597656 0.203125 4.960938 0.0976562 4.390625 -0.109375 C 3.816406 -0.316406 3.328125 -0.613281 2.921875 -1 C 2.523438 -1.394531 2.21875 -1.875 2 -2.4375 C 1.789062 -3 1.6875 -3.625 1.6875 -4.3125 L 1.6875 -10.8125 C 1.6875 -11.488281 1.796875 -12.101562 2.015625 -12.65625 C 2.242188 -13.21875 2.554688 -13.691406 2.953125 -14.078125 C 3.347656 -14.472656 3.832031 -14.78125 4.40625 -15 C 4.976562 -15.21875 5.609375 -15.328125 6.296875 -15.328125 C 7.578125 -15.328125 8.617188 -15.003906 9.421875 -14.359375 C 10.234375 -13.710938 10.769531 -12.773438 11.03125 -11.546875 L 9.09375 -11.546875 C 8.957031 -12.203125 8.640625 -12.71875 8.140625 -13.09375 C 7.648438 -13.46875 7.035156 -13.65625 6.296875 -13.65625 C 5.460938 -13.65625 4.796875 -13.398438 4.296875 -12.890625 C 3.804688 -12.390625 3.5625 -11.695312 3.5625 -10.8125 L 3.5625 -4.3125 C 3.5625 -3.425781 3.804688 -2.726562 4.296875 -2.21875 C 4.796875 -1.71875 5.460938 -1.46875 6.296875 -1.46875 C 7.140625 -1.46875 7.804688 -1.71875 8.296875 -2.21875 C 8.785156 -2.726562 9.03125 -3.425781 9.03125 -4.3125 L 9.03125 -6.09375 L 5.96875 -6.09375 Z M 5.96875 -7.765625 "/></g></g></g><g fill="#ffffff" fill-opacity="1"><g transform="translate(265.160413, 288.853428)"><g><path d="M 1.78125 -15.125 L 4.171875 -15.125 L 8.1875 -4.984375 C 8.300781 -4.722656 8.40625 -4.425781 8.5 -4.09375 C 8.601562 -3.769531 8.6875 -3.460938 8.75 -3.171875 C 8.851562 -2.816406 8.945312 -2.457031 9.03125 -2.09375 L 9.203125 -2.09375 C 9.203125 -2.09375 9.191406 -2.164062 9.171875 -2.3125 C 9.160156 -2.46875 9.140625 -2.671875 9.109375 -2.921875 C 9.085938 -3.171875 9.066406 -3.457031 9.046875 -3.78125 C 9.023438 -4.113281 9.015625 -4.460938 9.015625 -4.828125 L 9.015625 -15.125 L 10.8125 -15.125 L 10.8125 0 L 8.421875 0 L 4.46875 -10.15625 C 4.363281 -10.476562 4.253906 -10.804688 4.140625 -11.140625 C 4.023438 -11.484375 3.929688 -11.796875 3.859375 -12.078125 C 3.765625 -12.398438 3.679688 -12.722656 3.609375 -13.046875 L 3.4375 -13.046875 C 3.46875 -12.816406 3.5 -12.5625 3.53125 -12.28125 C 3.539062 -12.039062 3.550781 -11.753906 3.5625 -11.421875 C 3.582031 -11.097656 3.59375 -10.734375 3.59375 -10.328125 L 3.59375 0 L 1.78125 0 Z M 1.78125 -15.125 "/></g></g></g><g fill="#ffffff" fill-opacity="1"><g transform="translate(277.753387, 288.853428)"><g><path d="M 2 0 L 2 -15.125 L 10.921875 -15.125 L 10.921875 -13.390625 L 3.890625 -13.390625 L 3.890625 -8.65625 L 10.1875 -8.65625 L 10.1875 -6.9375 L 3.890625 -6.9375 L 3.890625 -1.71875 L 10.921875 -1.71875 L 10.921875 0 Z M 2 0 "/></g></g></g><g fill="#ffffff" fill-opacity="1"><g transform="translate(290.346362, 288.853428)"><g><path d="M 6.71875 -15.125 C 7.40625 -15.125 8.023438 -15.015625 8.578125 -14.796875 C 9.140625 -14.585938 9.617188 -14.285156 10.015625 -13.890625 C 10.421875 -13.503906 10.734375 -13.039062 10.953125 -12.5 C 11.171875 -11.96875 11.28125 -11.367188 11.28125 -10.703125 C 11.28125 -9.660156 11.007812 -8.769531 10.46875 -8.03125 C 9.925781 -7.300781 9.195312 -6.796875 8.28125 -6.515625 L 11.484375 0 L 9.265625 0 L 6.328125 -6.296875 L 3.78125 -6.296875 L 3.78125 0 L 1.890625 0 L 1.890625 -15.125 Z M 3.78125 -7.984375 L 6.71875 -7.984375 C 7.519531 -7.984375 8.15625 -8.226562 8.625 -8.71875 C 9.09375 -9.21875 9.328125 -9.878906 9.328125 -10.703125 C 9.328125 -11.535156 9.085938 -12.195312 8.609375 -12.6875 C 8.128906 -13.1875 7.5 -13.4375 6.71875 -13.4375 L 3.78125 -13.4375 Z M 3.78125 -7.984375 "/></g></g></g></svg>